<svg xmlns="http://www.w3.org/2000/svg" width="256" height="256" viewBox="0 0 100 100"><rect width="100" height="100" rx="20" fill="#2ec4b6"></rect><path d="M28.40 57.25L23.12 57.25L23.12 71.86L12.98 71.86L12.98 28.15L28.40 28.15Q33.02 28.15 36.33 29.24Q39.65 30.34 41.79 32.26Q43.94 34.18 44.96 36.79Q45.98 39.40 45.98 42.43L45.98 42.43Q45.98 45.70 44.93 48.43Q43.88 51.16 41.72 53.11Q39.56 55.06 36.24 56.15Q32.93 57.25 28.40 57.25L28.40 57.25ZM23.12 35.74L23.12 49.60L28.40 49.60Q32.36 49.60 34.10 47.71Q35.84 45.82 35.84 42.43L35.84 42.43Q35.84 40.93 35.39 39.70Q34.94 38.47 34.02 37.58Q33.11 36.70 31.71 36.22Q30.32 35.74 28.40 35.74L28.40 35.74L23.12 35.74ZM63.98 55.69L61.40 55.69L61.40 71.86L51.26 71.86L51.26 28.15L65.48 28.15Q70.22 28.15 73.56 29.12Q76.91 30.10 79.02 31.84Q81.14 33.58 82.10 35.95Q83.06 38.32 83.06 41.11L83.06 41.11Q83.06 43.24 82.49 45.13Q81.92 47.02 80.79 48.62Q79.67 50.23 78.03 51.48Q76.40 52.75 74.27 53.56L74.27 53.56Q75.29 54.07 76.17 54.82Q77.06 55.57 77.72 56.65L77.72 56.65L87.02 71.86L77.84 71.86Q75.29 71.86 74.18 69.94L74.18 69.94L66.92 57.25Q66.44 56.41 65.79 56.05Q65.15 55.69 63.98 55.69L63.98 55.69ZM61.40 35.74L61.40 48.70L65.48 48.70Q67.55 48.70 69.00 48.17Q70.46 47.65 71.39 46.72Q72.32 45.79 72.74 44.54Q73.16 43.30 73.16 41.86L73.16 41.86Q73.16 38.98 71.28 37.36Q69.41 35.74 65.48 35.74L65.48 35.74L61.40 35.74Z" fill="#fff"></path></svg>